<svg xmlns="http://www.w3.org/2000/svg" viewBox="0 0 512 512" fill="#fff">
  <path d="M0 0h512v512H0z" fill="#fc9c04"/>
  <path d="m206.34 168.74 110.84 140.91c27.83 35.39 18.61 18.59-1.85 43.58l-31.7 38.71c-23.14 28.27-12.61 24.4-51.07-16.24L83.33 218.06c-11.9-12.57-17.74-19.32-1.34-24.92l83.26-28.39c33.77-11.52 21.9-20.4 41.09 4z"/>
  <path d="M419.56 101.8a21.04 21.04 0 0 0-13.51 4.47L301.99 187.5l-38.08-48.4v-.01c-11.53-14.66-35.7-14.84-54.16-.42l-10.37 8.09 143.76 182.76 10.37-8.1c18.47-14.41 24.07-37.82 12.54-52.48l-38.08-48.42 104.06-81.22a20.88 20.88 0 0 0 3.58-29.45 21.04 21.04 0 0 0-16.05-8.06z"/>
</svg>